<svg width="113" height="18" viewBox="0 0 113 18" fill="none" xmlns="http://www.w3.org/2000/svg">
<g clip-path="url(#clip0_8776_12210)">
<path d="M14.3897 11.3741C14.3897 7.31973 16.7972 4.73469 20.5391 4.73469C24.281 4.73469 26.4821 7.29252 26.4821 10.9932C26.4821 11.3197 26.4821 11.7415 26.4546 12.0408H16.9073C16.9623 14.6395 18.2692 15.8776 20.4978 15.8776C22.1624 15.8776 23.2355 15.2245 23.7445 13.6463H26.3033C25.643 16.381 23.4969 18 20.5254 18C16.7972 18 14.376 15.415 14.376 11.3605L14.3897 11.3741ZM20.5116 6.81633C18.4618 6.81633 17.1411 7.86395 16.9485 10.0952H23.9096C23.7582 7.97279 22.5889 6.81633 20.5116 6.81633Z" fill="#FF6200"/>
<path d="M28.8761 15.6463H31.8614V7.10204H28.8761V4.95238H34.2139V7.15646H34.3652C34.8467 5.72789 35.961 4.95238 37.7769 4.95238H39.4415V7.40136L37.4605 7.37415C35.5345 7.34694 34.3652 8.38095 34.3652 10.6259V15.6327H38.5473V17.7551H28.8486V15.6327L28.8761 15.6463Z" fill="#FF6200"/>
<path d="M42.5778 4.95238H44.9303V6.70748H45.0816C45.7419 5.38775 46.8287 4.73469 48.5208 4.73469C50.2129 4.73469 51.5336 5.5102 52.0151 6.88435H52.1664C52.868 5.40136 54.0374 4.73469 55.9083 4.73469C58.4947 4.73469 59.9391 6.28571 59.9391 8.91156V17.7823H57.3803V9.2381C57.3803 7.71429 56.5412 6.81633 55.1242 6.81633C53.5284 6.81633 52.5104 8.01361 52.5104 9.89116V17.7823H49.9791V9.38776C49.9791 7.72789 49.1949 6.80272 47.6954 6.80272C46.0996 6.80272 45.0816 8 45.0816 9.83673V17.7687H42.5503V4.95238H42.5778Z" fill="#FF6200"/>
<path d="M63.2271 15.6463H66.3637V7.10204H63.2271V4.95238H68.9224V15.6463H71.9077V17.7687H63.2271V15.6463ZM66.171 0H69.06V2.80272H66.171V0Z" fill="#FF6200"/>
<path d="M75.2095 4.95238H77.5619V7.0068H77.7133C78.4974 5.48299 79.9419 4.73469 81.8954 4.73469C84.8256 4.73469 86.7103 6.55782 86.7103 9.46939V17.7823H84.1515V9.97279C84.1515 8.02721 83.2161 6.93878 81.2213 6.93878C79.0477 6.93878 77.7545 8.27211 77.7545 10.5714V17.7823H75.2232V4.95238H75.2095Z" fill="#FF6200"/>
<path d="M90.0811 14.2993C90.0811 12.1224 91.5531 10.9388 94.2082 10.5714L96.7945 10.1905C98.1564 9.98639 98.6654 9.65986 98.6654 8.58503C98.6654 7.38776 97.6749 6.77551 96.1341 6.77551C94.4145 6.77551 93.3965 7.48299 92.9975 9.03401H90.3837C91.0853 6.29932 93.0113 4.72109 96.1616 4.72109C99.312 4.72109 101.224 6.21769 101.224 9.18367V17.7687H98.8718V15.6463H98.6929C97.9363 17.2245 96.4643 18 94.6484 18C91.842 18 90.0948 16.6259 90.0948 14.2993H90.0811ZM98.6929 12.517V11.3605C98.294 11.8095 97.6749 11.9864 96.9458 12.0816L94.8685 12.3537C93.4515 12.5578 92.6123 12.9252 92.6123 14.0544V14.2993C92.6123 15.4286 93.5203 15.9728 95.0886 15.9728C97.1934 15.9728 98.6792 14.6939 98.6792 12.4898L98.6929 12.517Z" fill="#FF6200"/>
<path d="M104.498 15.6463H107.483V2.12245H104.498V0H110.015V15.6463H113V17.7687H104.498V15.6463Z" fill="#FF6200"/>
<path d="M5.73667 0L4.91125 2.13605H0V0H5.73667Z" fill="#FF6200"/>
<path d="M9.23095 0H17.0312V2.13605H11.0881L5.65413 17.7823H0V15.6463H3.79693" fill="#FF6200"/>
</g>
<defs>
<clipPath id="clip0_8776_12210">
<rect width="113" height="18" fill="white"/>
</clipPath>
</defs>
</svg>
