<svg width="1680" height="380" viewBox="0 0 1680 380" fill="none" xmlns="http://www.w3.org/2000/svg">
<g clip-path="url(#clip0_8661_3464)">
<path d="M878 -10.6696L878 50.2976L878 111.271L878 161.453L878 206.669L878 249.559L878 286.314L878 317.534L878 351.244L878 379.67" stroke="#FF6200" stroke-miterlimit="10"/>
<path d="M991.35 -10.6696L980.95 50.2976L970.54 111.271L961.98 161.453L954.27 206.669L946.95 249.559L940.68 286.314L935.36 317.534L929.61 351.244L924.76 379.67" stroke="#FF6200" stroke-miterlimit="10"/>
<path d="M1107.61 -10.6696L1086.54 50.2976L1065.47 111.271L1048.13 161.453L1032.51 206.669L1017.68 249.559L1004.98 286.314L994.19 317.534L982.54 351.244L972.72 379.67" stroke="#FF6200" stroke-miterlimit="10"/>
<path d="M1230.02 -10.6695L1197.72 50.2977L1165.41 111.272L1138.83 161.453L1114.87 206.669L1092.15 249.559L1072.67 286.314L1056.13 317.534L1038.27 351.244L1023.21 379.67" stroke="#FF6200" stroke-miterlimit="10"/>
<path d="M1362.46 -10.6695L1318.01 50.2977L1273.55 111.272L1236.96 161.453L1203.99 206.669L1172.72 249.559L1145.92 286.314L1123.15 317.534L1098.57 351.244L1077.85 379.67" stroke="#FF6200" stroke-miterlimit="10"/>
<path d="M1510.1 -10.6695L1452.1 50.2977L1394.09 111.272L1346.35 161.453L1303.33 206.669L1262.53 249.559L1227.56 286.314L1197.86 317.534L1165.79 351.244L1138.75 379.67" stroke="#FF6200" stroke-miterlimit="10"/>
<path d="M1680.25 -10.6695L1606.63 50.2977L1533.01 111.272L1472.42 161.453L1417.82 206.669L1366.03 249.559L1321.65 286.314L1283.96 317.534L1243.25 351.244L1208.93 379.67" stroke="#FF6200" stroke-miterlimit="10"/>
<path d="M1292.97 379.67L1336.01 351.244L1387.05 317.534L1434.32 286.314L1489.97 249.559L1554.92 206.669L1623.38 161.453L1699.36 111.272L1791.68 50.2978L1839.5 18.7145" stroke="#FF6200" stroke-miterlimit="10"/>
<path d="M1398.35 379.67L1452.32 351.244L1516.32 317.534L1575.6 286.314L1645.38 249.559L1726.81 206.669L1812.66 161.453L1839.5 147.32" stroke="#FF6200" stroke-miterlimit="10"/>
<path d="M1538.42 379.67L1606.91 351.244L1688.14 317.534L1763.37 286.314L1839.5 254.724" stroke="#FF6200" stroke-miterlimit="10"/>
<path d="M16.1899 379.67L-73.1801 351.244L-160.5 323.471" stroke="#FF6200" stroke-miterlimit="10"/>
<path d="M217.49 379.67L149 351.244L67.77 317.534L-7.45995 286.314L-96.03 249.559L-160.5 222.804" stroke="#FF6200" stroke-miterlimit="10"/>
<path d="M357.58 379.67L303.61 351.244L239.61 317.534L180.34 286.314L110.55 249.559L29.12 206.669L-56.72 161.453L-152 111.271L-160.5 106.793" stroke="#FF6200" stroke-miterlimit="10"/>
<path d="M-128.03 -10.6697L-35.7199 50.2976L56.6 111.271L132.58 161.453L201.04 206.669L265.98 249.559L321.63 286.314L368.9 317.534L419.94 351.244L462.98 379.67" stroke="#FF6200" stroke-miterlimit="10"/>
<path d="M75.72 -10.6696L149.34 50.2976L222.96 111.271L283.55 161.453L338.15 206.669L389.94 249.559L434.32 286.314L472.01 317.534L512.72 351.244L547.04 379.67" stroke="#FF6200" stroke-miterlimit="10"/>
<path d="M245.88 -10.6696L303.88 50.2976L361.89 111.271L409.63 161.453L452.64 206.669L493.45 249.559L528.42 286.314L558.12 317.534L590.19 351.244L617.23 379.67" stroke="#FF6200" stroke-miterlimit="10"/>
<path d="M393.53 -10.6696L437.98 50.2976L482.44 111.271L519.03 161.453L552 206.669L583.27 249.559L610.07 286.314L632.83 317.534L657.41 351.244L678.14 379.67" stroke="#FF6200" stroke-miterlimit="10"/>
<path d="M525.98 -10.6696L558.28 50.2976L590.58 111.271L617.17 161.453L641.13 206.669L663.85 249.559L683.32 286.314L699.86 317.534L717.72 351.244L732.78 379.67" stroke="#FF6200" stroke-miterlimit="10"/>
<path d="M648.39 -10.6696L669.46 50.2976L690.53 111.271L707.87 161.453L723.49 206.669L738.32 249.559L751.02 286.314L761.81 317.534L773.46 351.244L783.28 379.67" stroke="#FF6200" stroke-miterlimit="10"/>
<path d="M764.65 -10.6696L775.05 50.2976L785.45 111.271L794.01 161.453L801.73 206.669L809.05 249.559L815.32 286.314L820.64 317.534L826.39 351.244L831.24 379.67" stroke="#FF6200" stroke-miterlimit="10"/>
<path d="M-160.5 379.67L16.1899 379.67L217.49 379.67L357.58 379.67L462.98 379.67L547.04 379.67L617.23 379.67L678.14 379.67L732.78 379.67L783.28 379.67L831.24 379.67L878 379.67L924.76 379.67L972.72 379.67L1023.21 379.67L1077.85 379.67L1138.75 379.67L1208.93 379.67L1292.97 379.67L1398.35 379.67L1538.42 379.67L1739.67 379.67L1839.5 379.67" stroke="#FF6200" stroke-miterlimit="10"/>
<path d="M1839.5 351.244L-160.5 351.244" stroke="#FF6200" stroke-miterlimit="10"/>
<path d="M1839.5 317.534L-160.5 317.534" stroke="#FF6200" stroke-miterlimit="10"/>
<path d="M1839.5 286.314L-160.5 286.314" stroke="#FF6200" stroke-miterlimit="10"/>
<path d="M1839.5 249.559L-160.5 249.559" stroke="#FF6200" stroke-miterlimit="10"/>
<path d="M1839.5 206.669L-160.5 206.669" stroke="#FF6200" stroke-miterlimit="10"/>
<path d="M1839.5 161.453L-160.5 161.453" stroke="#FF6200" stroke-miterlimit="10"/>
<path d="M1839.5 111.271L-160.5 111.271" stroke="#FF6200" stroke-miterlimit="10"/>
<path d="M1839.5 50.2977L-160.5 50.2976" stroke="#FF6200" stroke-miterlimit="10"/>
<path d="M-160.5 379.67L1839.5 379.67L1839.5 -10.6695L-160.5 -10.6697L-160.5 379.67Z" stroke="#FF6200" stroke-miterlimit="10"/>
</g>
<defs>
<clipPath id="clip0_8661_3464">
<rect width="2001" height="391" fill="white" transform="translate(1840 380) rotate(-180)"/>
</clipPath>
</defs>
</svg>
